<svg width="236" height="236" viewBox="0 0 236 236" fill="none" xmlns="http://www.w3.org/2000/svg">
<path d="M39.7355 46.8043C45.8078 46.8043 50.7488 41.8632 50.7488 35.7909C50.7488 29.7186 45.8078 24.7776 39.7355 24.7776C33.6632 24.7776 28.7222 29.7186 28.7222 35.7909C28.7222 41.8632 33.6632 46.8043 39.7355 46.8043ZM39.7355 31.0709C42.3386 31.0709 44.4555 33.1878 44.4555 35.7909C44.4555 38.394 42.3386 40.5109 39.7355 40.5109C37.1324 40.5109 35.0155 38.394 35.0155 35.7909C35.0155 33.1878 37.1332 31.0709 39.7355 31.0709Z" fill="#999999"/>
<path d="M182.909 89.2843C182.909 95.3566 187.85 100.298 193.922 100.298C199.994 100.298 204.935 95.3566 204.935 89.2843C204.935 83.212 199.994 78.271 193.922 78.271C187.85 78.271 182.909 83.212 182.909 89.2843ZM193.922 84.5643C196.525 84.5643 198.642 86.6812 198.642 89.2843C198.642 91.8874 196.525 94.0043 193.922 94.0043C191.319 94.0043 189.202 91.8874 189.202 89.2843C189.202 86.6812 191.32 84.5643 193.922 84.5643Z" fill="#999999"/>
<path d="M206.509 55.0872C208.476 55.0872 210.071 53.492 210.071 51.5244C210.071 49.5567 208.476 47.9615 206.509 47.9615C204.541 47.9615 202.946 49.5567 202.946 51.5244C202.946 53.492 204.541 55.0872 206.509 55.0872Z" fill="#999999"/>
<path d="M55.4686 67.6738C57.4363 67.6738 59.0314 66.0787 59.0314 64.111C59.0314 62.1433 57.4363 60.5482 55.4686 60.5482C53.5009 60.5482 51.9058 62.1433 51.9058 64.111C51.9058 66.0787 53.5009 67.6738 55.4686 67.6738Z" fill="#999999"/>
<path d="M171.757 40.6495C172.371 41.2639 173.177 41.5714 173.982 41.5714C174.786 41.5714 175.592 41.2639 176.206 40.6495L179.762 37.0937L183.318 40.6495C183.932 41.2639 184.738 41.5714 185.543 41.5714C186.347 41.5714 187.153 41.2639 187.767 40.6495C188.996 39.4207 188.996 37.4289 187.767 36.2001L184.212 32.6444L187.767 29.0886C188.996 27.8598 188.996 25.868 187.767 24.6392C186.538 23.4105 184.547 23.4105 183.318 24.6392L179.762 28.195L176.206 24.6392C174.978 23.4105 172.986 23.4105 171.757 24.6392C170.528 25.868 170.528 27.8598 171.757 29.0886L175.313 32.6444L171.757 36.2001C170.528 37.4289 170.528 39.4199 171.757 40.6495Z" fill="#999999"/>
<path d="M27.01 106.729C27.6243 107.344 28.4299 107.651 29.2347 107.651C30.0394 107.651 30.845 107.344 31.4593 106.729L35.0151 103.174L38.5708 106.729C39.1852 107.344 39.9907 107.651 40.7955 107.651C41.6003 107.651 42.4058 107.344 43.0202 106.729C44.249 105.501 44.249 103.509 43.0202 102.28L39.4645 98.7243L43.0202 95.1686C44.249 93.9398 44.249 91.948 43.0202 90.7192C41.7914 89.4904 39.7996 89.4904 38.5708 90.7192L35.0151 94.2749L31.4593 90.7192C30.2306 89.4904 28.2387 89.4904 27.01 90.7192C25.7812 91.948 25.7812 93.9398 27.01 95.1686L30.5657 98.7243L27.01 102.28C25.7812 103.509 25.7812 105.5 27.01 106.729Z" fill="#999999"/>
<path d="M134.135 108.164C135.873 108.164 137.282 106.755 137.282 105.018C137.282 103.28 135.873 101.871 134.135 101.871C132.398 101.871 130.989 103.28 130.989 105.018C130.989 106.755 132.398 108.164 134.135 108.164Z" fill="#999999"/>
<path d="M102.669 108.164C104.406 108.164 105.815 106.755 105.815 105.018C105.815 103.28 104.406 101.871 102.669 101.871C100.931 101.871 99.522 103.28 99.522 105.018C99.522 106.755 100.931 108.164 102.669 108.164Z" fill="#999999"/>
<path d="M205.249 155.994C201.258 152.998 200.923 148.158 200.536 142.557C199.93 133.823 199.177 122.958 181.726 120.775C172.833 119.672 164.017 122.521 156.888 128.811C150.963 134.044 146.779 141.182 144.829 148.901L132.563 143.328V140.789C132.563 140.76 132.547 140.735 132.546 140.706C144.589 134.952 153.745 124.23 157.46 111.305C159.553 111.36 161.479 110.797 163.381 109.612C166.301 107.79 168.277 104.827 168.664 101.681C169.054 98.5277 168.077 95.366 165.991 93.0029C164.556 91.3832 162.694 90.237 160.647 89.6753C160.641 89.1223 160.619 87.1116 160.611 86.9023C160.769 86.5247 160.884 72.8768 160.884 72.8768C161.612 72.7903 162.322 72.6581 162.992 72.4261C165.352 71.6119 167.153 69.9402 168.339 67.4606H168.342C172.436 58.9064 165.121 46.7878 151.223 37.4579C152.197 34.9925 152.299 32.3037 151.411 29.7832C150.43 27.0086 148.433 24.7808 145.781 23.5111C143.129 22.2359 140.142 22.0762 137.362 23.0533C134.838 23.9446 132.806 25.7083 131.497 28.0101C115.517 23.0297 101.489 24.9256 97.3894 33.4798C96.4667 35.4071 96.2676 37.421 96.7153 39.3711C83.2483 45.5284 75.8686 57.1694 75.9252 72.3616L75.9653 77.5575C75.996 80.498 76.0739 86.0071 76.1321 86.2533C76.1313 86.2989 76.1644 88.8997 76.1644 89.6682C74.2716 90.1811 72.5473 91.1983 71.1462 92.6489C69.0537 94.8217 67.9594 97.6796 68.0672 100.697C68.1836 104.064 70.0952 107.316 73.1742 109.393C75.1197 110.705 77.0706 111.347 79.1907 111.313C82.4821 123.338 90.4636 133.428 101.113 139.555C101.112 139.581 101.098 139.603 101.098 139.63V143.327L76.0196 154.724C64.4934 159.963 57.0444 171.671 57.0444 184.547V210.429C57.0444 212.169 58.4518 213.576 60.1911 213.576H173.471C175.21 213.576 176.618 212.169 176.618 210.429V195.941C178.168 196.136 179.736 196.269 181.338 196.269C195.237 196.269 209.974 187.275 213.523 176.63C214.959 172.318 215.795 163.904 205.249 155.994ZM139.452 28.991C140.644 28.5733 141.923 28.6465 143.056 29.1846C144.949 30.0932 145.939 32.1015 145.674 34.0745C144.386 33.3657 143.066 32.6758 141.698 32.0205C140.342 31.3715 138.99 30.7791 137.642 30.2245C138.151 29.6904 138.737 29.242 139.452 28.991ZM103.062 36.1969C104.479 33.2438 108.901 31.5257 115.102 31.5257C121.583 31.5257 130.009 33.4003 138.981 37.6963C156.54 46.1097 165.553 58.7027 162.662 64.7443C162.084 65.9518 161.435 66.305 160.935 66.4804C157.272 67.7344 148.585 63.4352 139.366 58.8875C137.101 57.7689 134.726 56.5952 132.243 55.4057C129.806 54.2383 127.391 53.1165 125.049 52.0286C114.886 47.3054 104.383 42.4194 102.893 38.2682C102.648 37.5822 102.696 36.9616 103.062 36.1969ZM99.9131 44.8204C104.327 49.3272 112.566 53.1661 122.394 57.7351C124.717 58.8136 127.11 59.9259 129.526 61.0847C131.984 62.2615 134.338 63.4234 136.581 64.5295C143.723 68.0569 149.654 70.9778 154.589 72.2672V84.1655C145.173 91.2455 134.526 93.928 124.462 91.7277C115.439 89.7579 107.958 84.0396 103.938 76.0408C103.48 75.1314 102.61 74.4981 101.605 74.3447C100.594 74.1819 99.5771 74.5288 98.8699 75.2604C94.8107 79.4392 88.8832 81.9502 82.2917 82.3617C82.2886 80.8434 82.2705 79.1906 82.2547 77.4969L82.2146 72.3372C82.1556 56.1208 91.6177 48.443 99.9131 44.8204ZM84.6462 107.089C84.4653 106.207 83.9146 105.445 83.1342 104.993C82.3539 104.545 81.4162 104.458 80.5595 104.738C79.3425 105.153 78.2176 105.209 76.6938 104.176C75.299 103.236 74.4014 101.816 74.3519 100.473C74.3055 99.1767 74.7759 97.9502 75.6735 97.0188C76.5711 96.0906 77.7755 95.5777 79.0687 95.5777C79.9199 95.5777 80.7679 95.215 81.3611 94.6069C82.2351 93.7085 82.5049 92.9376 82.4506 88.6432C89.1821 88.2656 95.4275 86.07 100.321 82.3522C105.468 90.222 113.584 95.7964 123.119 97.8763C125.872 98.4789 128.653 98.777 131.44 98.777C139.267 98.7747 147.115 96.3919 154.421 91.8552C154.541 93.2932 154.828 93.9815 155.464 94.625C156.054 95.2244 156.893 95.5777 157.735 95.5777C159.088 95.5777 160.378 96.1582 161.272 97.1722C162.182 98.1988 162.588 99.5259 162.418 100.912C162.259 102.19 161.374 103.444 160.052 104.271C158.724 105.098 157.6 105.224 156.177 104.723C155.329 104.412 154.386 104.502 153.599 104.937C152.809 105.377 152.247 106.136 152.053 107.018C148.989 121.086 138.591 132.579 124.913 137.01L123.524 137.465C119.612 138.733 115.614 138.78 111.97 137.603C98.0565 133.126 87.5868 121.433 84.6462 107.089ZM110.041 143.595C112.425 144.364 114.905 144.744 117.422 144.744C120.093 144.744 122.8 144.314 125.467 143.45L126.27 143.188V144.351C126.27 149.556 122.035 153.791 116.83 153.791C111.624 153.791 107.39 149.556 107.39 144.351V142.552C108.274 142.898 109.129 143.302 110.041 143.595ZM170.322 207.284H151.442V191.551C151.442 189.812 150.035 188.404 148.295 188.404C146.556 188.404 145.149 189.812 145.149 191.551V207.284H85.3621V191.551C85.3621 189.812 83.9547 188.404 82.2154 188.404C80.4761 188.404 79.0687 189.812 79.0687 191.551V207.284H63.3354V184.548C63.3354 174.134 69.3369 164.675 78.6235 160.453L102.118 149.776C104.339 155.774 110.068 160.084 116.829 160.084C123.59 160.084 129.319 155.774 131.539 149.775L143.75 155.323C143.662 156.384 143.575 157.445 143.575 158.511C143.575 175.502 154.858 189.897 170.322 194.623V207.284ZM207.55 174.641C204.874 182.667 192.379 189.978 181.335 189.978C163.985 189.978 149.869 175.861 149.869 158.511C149.869 149.05 154.051 139.711 161.054 133.531C166.008 129.158 171.929 126.835 177.989 126.835C178.972 126.835 179.959 126.896 180.945 127.019C193.258 128.559 193.677 134.612 194.257 142.989C194.688 149.231 195.176 156.304 201.476 161.028C207.108 165.253 209.152 169.835 207.55 174.641Z" fill="#999999"/>
<path d="M193.922 161.787C188.787 161.787 184.611 165.963 184.611 171.098C184.611 176.229 188.787 180.405 193.922 180.405C199.056 180.405 203.233 176.229 203.233 171.098C203.233 165.963 199.057 161.787 193.922 161.787ZM193.922 174.112C192.26 174.112 190.904 172.76 190.904 171.098C190.904 169.435 192.26 168.08 193.922 168.08C195.584 168.08 196.939 169.435 196.939 171.098C196.939 172.76 195.584 174.112 193.922 174.112Z" fill="#999999"/>
<path d="M175.042 131.396C170.5 131.396 166.806 135.089 166.806 139.631C166.806 144.173 170.5 147.867 175.042 147.867C179.584 147.867 183.277 144.173 183.277 139.631C183.277 135.089 179.584 131.396 175.042 131.396ZM175.042 141.573C173.973 141.573 173.099 140.701 173.099 139.631C173.099 138.561 173.972 137.689 175.042 137.689C176.112 137.689 176.984 138.561 176.984 139.631C176.984 140.701 176.112 141.573 175.042 141.573Z" fill="#999999"/>
<path d="M169.118 156.938C169.118 152.396 165.424 148.702 160.882 148.702C156.34 148.702 152.646 152.395 152.646 156.938C152.646 161.48 156.34 165.173 160.882 165.173C165.424 165.173 169.118 161.48 169.118 156.938ZM160.882 158.88C159.813 158.88 158.94 158.007 158.94 156.938C158.94 155.868 159.812 154.995 160.882 154.995C161.952 154.995 162.824 155.868 162.824 156.938C162.824 158.007 161.952 158.88 160.882 158.88Z" fill="#999999"/>
<path d="M171.895 169.155C167.354 169.155 163.66 172.849 163.66 177.391C163.66 181.933 167.353 185.626 171.895 185.626C176.437 185.626 180.131 181.933 180.131 177.391C180.131 172.849 176.437 169.155 171.895 169.155ZM171.895 179.333C170.826 179.333 169.953 178.461 169.953 177.391C169.953 176.321 170.825 175.449 171.895 175.449C172.965 175.449 173.838 176.321 173.838 177.391C173.838 178.461 172.965 179.333 171.895 179.333Z" fill="#999999"/>
<path d="M48.3028 136.131C47.7191 135.554 47.126 134.967 46.5486 134.361C46.5478 134.36 46.547 134.36 46.547 134.359C46.5462 134.359 46.5462 134.359 46.5462 134.358C44.1343 131.835 42.5271 129.536 42.5271 126.528C42.5271 122.53 40.4527 121.433 39.2145 121.136C34.3073 119.894 28.5607 129.525 25.5737 135.348C23.7793 138.847 21.6372 143.746 21.6372 147.209C21.6372 153.315 25.0049 158.599 29.9444 161.459L28.1241 201.882C27.9762 205.148 29.12 208.308 31.2613 210.545C33.1296 212.502 35.5817 213.578 38.1627 213.578C40.7438 213.578 43.1958 212.502 45.0641 210.545C47.2062 208.308 48.3493 205.149 48.2014 201.882L46.381 161.459C51.3205 158.598 54.689 153.314 54.689 147.209C54.6882 142.455 51.2953 139.094 48.3028 136.131ZM36.5642 129.622C37.1479 132.256 38.4294 134.447 39.9138 136.333C38.8015 137.16 37.7041 137.596 36.6319 137.639C35.1875 137.633 33.6205 136.966 32.3422 136.041C33.8659 133.334 35.363 131.15 36.5642 129.622ZM41.9143 202.165C41.9851 203.722 41.4746 205.195 40.5164 206.196C40.0428 206.694 39.2475 207.284 38.1627 207.284C37.0779 207.284 36.2818 206.694 35.809 206.196C34.8501 205.195 34.3403 203.722 34.4111 202.165L36.1504 163.531C36.8175 163.613 37.4736 163.735 38.1627 163.735C38.8518 163.735 39.5079 163.614 40.175 163.531L41.9143 202.165ZM38.1619 157.442C32.52 157.442 27.929 152.851 27.929 147.209C27.929 146.317 28.3962 144.42 29.5495 141.686C31.8151 143.136 34.12 143.936 36.447 143.936C36.5886 143.936 36.7294 143.932 36.8742 143.926C39.4513 143.827 41.9088 142.815 44.2161 140.941C46.4904 143.2 48.3949 145.181 48.3949 147.208C48.3949 152.851 43.8039 157.442 38.1619 157.442Z" fill="#999999"/>
</svg>
